<svg xmlns="http://www.w3.org/2000/svg" version="1.1" xmlns:xlink="http://www.w3.org/1999/xlink" width="1000" height="1000"><metadata><rdf:RDF xmlns:rdf="http://www.w3.org/1999/02/22-rdf-syntax-ns#" xmlns:dc="http://purl.org/dc/elements/1.1/"><rdf:Description><dc:creator>RealFaviconGenerator</dc:creator><dc:source>https://realfavicongenerator.net</dc:source></rdf:Description></rdf:RDF></metadata><style>
    #light-icon {
      display: inline;
    }
    #dark-icon {
      display: none;
    }

    @media (prefers-color-scheme: dark) {
      #light-icon {
        display: none;
      }
      #dark-icon {
        display: inline;
      }
    }
  </style><g id="light-icon"><svg xmlns="http://www.w3.org/2000/svg" version="1.1" xmlns:xlink="http://www.w3.org/1999/xlink" width="1000" height="1000"><g><g transform="matrix(9.749439407234085,0,0,9.749439407234085,0,6.483377205810655)"><svg xmlns="http://www.w3.org/2000/svg" version="1.1" id="Layer_1" viewBox="0 0 102.57 101.24" width="102.57" height="101.24"><circle cx="79.41" cy="8.65" r="8.65"></circle><path d="M55.87,68.94c-1.99-1.23-3.74-2.8-5.19-4.64l-3.72,8.36c-.42.97-1.38,1.59-2.43,1.59H3.8c-2.09,0-3.8,1.71-3.8,3.81s1.71,3.8,3.8,3.8h40.72c4.08,0,7.77-2.41,9.4-6.15l2.8-6.24-.85-.53ZM58.85.11H4.5C2.1.11,0,2.22,0,4.61c0,2.61,1.89,4.5,4.5,4.5h54.35c2.61,0,4.5-1.89,4.5-4.5,0-2.4-2.1-4.5-4.5-4.5ZM43.29,43.75H4.5c-2.4,0-4.5,2.1-4.5,4.5,0,2.6,1.89,4.5,4.5,4.5h38.79c2.61,0,4.5-1.89,4.5-4.5,0-2.4-2.1-4.5-4.5-4.5ZM2.65,28.07h29.52c1.56,0,2.65-1.09,2.65-2.65,0-1.23-1.16-2.65-2.65-2.65H2.65c-1.49,0-2.65,1.43-2.65,2.65,0,1.56,1.09,2.65,2.65,2.65ZM2.65,101.14h57.17c1.56,0,2.65-1.09,2.65-2.65,0-1.23-1.16-2.65-2.65-2.65H2.65c-1.49,0-2.65,1.42-2.65,2.64,0,1.57,1.09,2.66,2.65,2.66ZM44.17,57.59H2.65c-1.49,0-2.65,1.43-2.65,2.65,0,1.57,1.09,2.66,2.65,2.66h41.52c1.56,0,2.65-1.09,2.65-2.65,0-1.23-1.16-2.65-2.65-2.65h0ZM46.25,13.03H2.65c-1.49,0-2.65,1.42-2.65,2.65,0,1.56,1.09,2.65,2.65,2.65h43.6c1.56,0,2.65-1.09,2.65-2.65,0-1.23-1.16-2.65-2.65-2.65ZM62.17,86.35H2.65c-1.49,0-2.65,1.43-2.65,2.66,0,1.56,1.09,2.65,2.65,2.65h59.52c1.56,0,2.65-1.09,2.65-2.65,0-1.23-1.16-2.65-2.65-2.65h0Z"></path><path d="M101.43,55.08c0-2.18.36-4.45,1.14-6.65h-10.66l-.23-.73-3.19-10.38c-1.77-5.73-6.5-10.1-12.35-11.4l-7.07-1.59-.13-.02-8.59-1.92c-1.22-.26-2.46-.4-3.69-.4-3.7,0-7.23,1.22-10.2,3.53l-9.73,7.57c-.27.21-.49.44-.69.7H2.58c-1.3,0-2.58,1.52-2.58,3.07,0,1.81,1.06,3.07,2.58,3.07h36.52c.21,0,.41-.03.59-.07.62-.1,1.2-.35,1.7-.75l9.55-7.57c1.6-1.24,3.57-1.92,5.6-1.93.66,0,1.33.07,1.97.22l3.09.69,1.17.26-.42,1.12-7.04,18.57c-1.84,4.74.11,10.18,4.54,12.67l16.39,9.22c1.08.62,1.6,1.92,1.23,3.1l-6.51,20.84c-.62,2,.5,4.14,2.5,4.77.37.11.75.17,1.13.17,1.67,0,3.13-1.07,3.64-2.67l6.51-20.84c1.44-4.6-.56-9.65-4.76-12.01l-9.52-5.35-.77-.43.31-.83,8.1-21.97.67-1.81,1.14,1.56c.6.82,1.05,1.72,1.34,2.67l3.55,11.52c.9,2.96,3.63,4.98,6.72,4.96h9.98c-.01-.32-.03-.64-.03-.96h-.04,0Z"></path></svg></g></g></svg></g><g id="dark-icon"><svg xmlns="http://www.w3.org/2000/svg" version="1.1" xmlns:xlink="http://www.w3.org/1999/xlink" width="1000" height="1000"><g><g transform="matrix(9.749439407234085,0,0,9.749439407234085,0,6.483377205810655)"><svg xmlns="http://www.w3.org/2000/svg" version="1.1" id="Layer_1" viewBox="0 0 102.57 101.24" width="102.57" height="101.24"><defs>
    <style>
      .st0 {
        fill: #fff;
      }
    </style>
  </defs><circle class="st0" cx="79.41" cy="8.65" r="8.65"></circle><path class="st0" d="M55.87,68.94c-1.99-1.23-3.74-2.8-5.19-4.64l-3.72,8.36c-.42.97-1.38,1.59-2.43,1.59H3.8c-2.09,0-3.8,1.71-3.8,3.81s1.71,3.8,3.8,3.8h40.72c4.08,0,7.77-2.41,9.4-6.15l2.8-6.24-.85-.53ZM58.85.11H4.5C2.1.11,0,2.22,0,4.61c0,2.61,1.89,4.5,4.5,4.5h54.35c2.61,0,4.5-1.89,4.5-4.5,0-2.4-2.1-4.5-4.5-4.5ZM43.29,43.75H4.5c-2.4,0-4.5,2.1-4.5,4.5,0,2.6,1.89,4.5,4.5,4.5h38.79c2.61,0,4.5-1.89,4.5-4.5,0-2.4-2.1-4.5-4.5-4.5ZM2.65,28.07h29.52c1.56,0,2.65-1.09,2.65-2.65,0-1.23-1.16-2.65-2.65-2.65H2.65c-1.49,0-2.65,1.43-2.65,2.65,0,1.56,1.09,2.65,2.65,2.65ZM2.65,101.14h57.17c1.56,0,2.65-1.09,2.65-2.65,0-1.23-1.16-2.65-2.65-2.65H2.65c-1.49,0-2.65,1.42-2.65,2.64,0,1.57,1.09,2.66,2.65,2.66ZM44.17,57.59H2.65c-1.49,0-2.65,1.43-2.65,2.65,0,1.57,1.09,2.66,2.65,2.66h41.52c1.56,0,2.65-1.09,2.65-2.65,0-1.23-1.16-2.65-2.65-2.65h0ZM46.25,13.03H2.65c-1.49,0-2.65,1.42-2.65,2.65,0,1.56,1.09,2.65,2.65,2.65h43.6c1.56,0,2.65-1.09,2.65-2.65,0-1.23-1.16-2.65-2.65-2.65ZM62.17,86.35H2.65c-1.49,0-2.65,1.43-2.65,2.66,0,1.56,1.09,2.65,2.65,2.65h59.52c1.56,0,2.65-1.09,2.65-2.65,0-1.23-1.16-2.65-2.65-2.65h0Z"></path><path class="st0" d="M101.43,55.08c0-2.18.36-4.45,1.14-6.65h-10.66l-.23-.73-3.19-10.38c-1.77-5.73-6.5-10.1-12.35-11.4l-7.07-1.59-.13-.02-8.59-1.92c-1.22-.26-2.46-.4-3.69-.4-3.7,0-7.23,1.22-10.2,3.53l-9.73,7.57c-.27.21-.49.44-.69.7H2.58c-1.3,0-2.58,1.52-2.58,3.07,0,1.81,1.06,3.07,2.58,3.07h36.52c.21,0,.41-.03.59-.07.62-.1,1.2-.35,1.7-.75l9.55-7.57c1.6-1.24,3.57-1.92,5.6-1.93.66,0,1.33.07,1.97.22l3.09.69,1.17.26-.42,1.12-7.04,18.57c-1.84,4.74.11,10.18,4.54,12.67l16.39,9.22c1.08.62,1.6,1.92,1.23,3.1l-6.51,20.84c-.62,2,.5,4.14,2.5,4.77.37.11.75.17,1.13.17,1.67,0,3.13-1.07,3.64-2.67l6.51-20.84c1.44-4.6-.56-9.65-4.76-12.01l-9.52-5.35-.77-.43.31-.83,8.1-21.97.67-1.81,1.14,1.56c.6.82,1.05,1.72,1.34,2.67l3.55,11.52c.9,2.96,3.63,4.98,6.72,4.96h9.98c-.01-.32-.03-.64-.03-.96h-.04,0Z"></path></svg></g></g></svg></g></svg>